<?xml version="1.0" encoding="UTF-8" ?>
<!DOCTYPE svg PUBLIC "-//W3C//DTD SVG 1.1//EN" "http://www.w3.org/Graphics/SVG/1.1/DTD/svg11.dtd">
<svg width="332pt" height="450pt" viewBox="0 0 332 450" version="1.1" xmlns="http://www.w3.org/2000/svg">
<path fill="#fafafa" d=" M 0.00 0.00 L 332.00 0.00 L 332.00 450.00 L 0.00 450.00 L 0.00 0.00 Z" />
<path fill="#26403d" d=" M 94.59 32.56 C 141.53 32.55 188.47 32.54 235.41 32.56 C 235.40 134.50 235.45 236.44 235.47 338.38 C 188.48 338.40 141.49 338.38 94.50 338.39 C 94.53 236.45 94.52 134.50 94.59 32.56 Z" />
<path fill="#fafafa" d=" M 222.66 36.43 C 223.99 34.62 226.22 34.48 228.30 34.39 C 221.29 40.78 214.68 47.64 209.03 55.27 C 216.64 47.90 224.56 40.79 233.33 34.81 C 233.32 35.44 233.31 36.69 233.30 37.32 C 223.07 44.65 213.72 53.17 205.36 62.58 C 214.38 54.79 223.46 46.87 233.90 41.03 C 233.38 42.67 232.59 44.24 231.03 45.10 C 222.43 50.89 214.24 57.29 206.73 64.45 C 215.43 58.20 224.18 51.81 233.96 47.34 C 233.06 50.55 229.81 51.66 227.26 53.24 C 217.34 59.05 207.99 65.83 199.24 73.28 C 197.43 74.74 196.16 76.71 194.99 78.68 C 207.34 69.71 220.02 61.15 233.48 53.91 C 233.41 54.54 233.25 55.81 233.18 56.44 C 220.16 63.66 207.65 71.81 195.83 80.87 C 194.08 82.07 192.96 83.89 191.97 85.71 C 205.54 76.65 219.15 67.39 233.97 60.46 C 232.98 63.89 229.38 64.86 226.66 66.49 C 214.99 72.91 203.72 80.06 192.89 87.82 C 191.07 88.92 190.20 90.90 189.30 92.72 C 203.85 83.71 218.29 74.29 233.95 67.28 C 233.28 68.72 232.53 70.24 230.94 70.85 C 216.29 78.45 202.01 86.79 188.40 96.14 C 187.98 97.56 187.56 98.97 187.15 100.39 C 202.10 90.85 217.50 82.02 233.36 74.07 C 233.36 74.64 233.35 75.77 233.35 76.34 C 217.28 84.68 201.47 93.55 186.32 103.46 C 185.91 105.00 185.51 106.53 185.11 108.06 C 201.05 98.56 216.89 88.83 233.38 80.30 C 232.97 81.44 232.93 82.94 231.60 83.44 C 216.21 92.00 200.96 100.81 185.97 110.07 C 183.75 111.12 184.12 113.96 183.39 115.92 C 199.91 106.05 216.25 95.76 233.50 87.20 C 233.14 90.31 229.91 91.12 227.64 92.50 C 212.53 100.79 197.68 109.56 183.06 118.70 C 182.88 119.81 182.53 122.04 182.36 123.15 C 199.28 112.86 216.14 102.36 233.85 93.49 C 233.33 94.96 232.61 96.46 231.08 97.10 C 215.44 105.63 200.06 114.63 184.94 124.04 C 183.69 124.95 181.80 125.66 181.88 127.51 C 178.73 157.79 184.81 188.93 199.11 215.81 C 207.84 232.49 219.69 247.40 233.23 260.43 C 233.30 261.45 233.37 262.46 233.45 263.49 C 210.64 242.31 192.87 215.30 184.65 185.14 C 179.40 166.39 177.87 146.67 179.75 127.31 C 176.60 129.33 173.48 131.41 170.29 133.38 C 164.26 162.39 167.19 193.37 179.60 220.37 C 190.02 243.31 207.20 262.96 228.05 277.03 C 230.38 278.70 233.59 279.95 233.76 283.30 C 229.67 285.26 225.46 286.98 221.32 288.83 C 223.30 289.79 225.27 290.76 227.25 291.73 C 229.40 291.03 231.56 290.34 233.77 289.83 C 232.93 291.15 231.91 292.31 230.71 293.32 C 231.62 293.66 232.54 294.01 233.46 294.36 C 233.07 295.87 232.67 297.38 232.30 298.90 C 230.18 299.59 228.08 300.32 226.08 301.31 C 228.11 300.94 230.11 300.43 232.10 299.90 C 232.52 301.53 233.00 303.15 233.51 304.77 C 231.58 304.41 229.66 303.96 227.71 303.76 C 224.18 304.52 220.85 306.01 217.43 307.18 C 222.71 307.72 228.01 308.11 233.32 308.30 C 233.33 308.87 233.36 310.02 233.38 310.60 C 216.12 313.90 198.65 316.05 181.15 317.63 C 164.96 321.28 148.56 324.30 131.96 325.29 C 129.64 325.47 127.26 325.43 125.01 326.08 C 115.33 329.00 105.78 332.57 95.83 334.47 C 96.83 331.84 99.64 331.63 101.91 330.93 C 107.72 329.29 113.55 327.69 119.19 325.55 C 111.36 326.13 103.76 328.56 95.89 328.72 C 98.11 325.29 102.92 326.35 106.41 325.31 C 102.86 324.47 98.14 325.91 95.71 322.48 C 104.57 322.48 113.55 324.85 122.32 322.51 C 113.74 322.32 105.14 322.06 96.65 320.70 C 96.64 320.16 96.63 319.10 96.62 318.56 C 107.99 320.29 119.54 320.60 131.01 319.96 C 135.01 319.82 138.86 318.66 142.74 317.79 C 127.03 316.50 111.19 313.87 96.71 307.39 C 96.66 306.81 96.57 305.65 96.53 305.07 C 111.75 311.88 128.40 314.78 144.96 315.76 C 148.69 316.26 152.04 314.28 155.44 313.12 C 136.65 310.18 117.68 303.60 103.58 290.39 C 100.39 287.17 96.25 283.99 96.24 279.00 C 101.02 285.12 106.39 290.86 112.86 295.24 C 126.51 304.55 142.78 309.42 159.05 311.44 C 162.66 310.83 165.95 308.99 169.41 307.81 C 150.31 303.30 131.54 294.52 118.47 279.49 C 107.16 266.77 101.03 249.94 100.28 233.03 C 99.24 213.30 104.58 193.77 112.75 175.97 C 109.29 179.09 105.46 181.87 102.38 185.39 C 99.96 189.05 98.18 193.09 96.51 197.13 C 96.72 194.05 96.62 190.96 96.81 187.88 C 100.08 184.36 102.96 180.54 105.11 176.22 C 102.22 178.84 99.34 181.49 96.52 184.19 C 96.85 181.75 95.98 178.80 97.78 176.78 C 101.89 171.66 106.17 166.69 110.36 161.64 C 105.57 165.20 100.96 169.02 96.18 172.60 C 96.51 171.53 96.78 170.42 97.27 169.40 C 105.00 162.00 115.10 157.20 121.60 148.51 C 154.36 110.33 188.34 73.22 222.66 36.43 Z" />
<path fill="#26403d" d=" M 202.10 61.72 C 198.70 67.60 194.66 73.12 190.38 78.38 C 183.45 85.18 176.82 92.27 170.73 99.84 C 159.16 111.92 148.48 124.83 136.54 136.56 C 132.41 140.62 128.94 145.35 124.30 148.87 C 126.08 146.50 127.97 144.22 129.94 142.01 C 153.54 114.85 177.62 88.10 202.10 61.72 Z" />
<path fill="#26403d" d=" M 181.97 97.89 C 183.32 95.20 185.46 93.09 188.01 91.51 C 187.19 94.60 184.61 96.42 181.97 97.89 Z" />
<path fill="#26403d" d=" M 175.12 102.89 C 176.47 100.78 178.18 98.94 180.22 97.50 C 179.18 99.85 177.32 101.61 175.12 102.89 Z" />
<path fill="#26403d" d=" M 178.50 106.03 C 179.54 102.28 182.49 99.88 185.67 97.94 C 185.26 99.36 184.85 100.78 184.45 102.20 C 182.47 103.49 180.50 104.78 178.50 106.03 Z" />
<path fill="#26403d" d=" M 177.18 104.16 C 176.21 107.91 173.11 110.16 169.92 111.97 C 171.48 108.65 173.99 105.98 177.18 104.16 Z" />
<path fill="#26403d" d=" M 183.65 105.21 C 183.30 106.70 182.95 108.18 182.60 109.67 C 180.23 111.15 177.86 112.62 175.45 114.02 C 176.28 109.59 180.10 107.34 183.65 105.21 Z" />
<path fill="#26403d" d=" M 168.30 111.00 C 166.55 114.99 162.85 117.39 159.28 119.57 C 161.53 116.00 164.91 113.42 168.30 111.00 Z" />
<path fill="#26403d" d=" M 165.71 120.17 C 167.20 116.20 170.69 113.83 174.12 111.69 C 173.66 113.07 173.20 114.45 172.73 115.83 C 170.43 117.33 168.10 118.80 165.71 120.17 Z" />
<path fill="#26403d" d=" M 174.49 117.19 C 177.00 115.65 179.49 114.09 181.97 112.51 C 181.69 114.14 181.41 115.78 181.14 117.42 C 178.39 119.18 175.64 120.96 172.87 122.69 C 173.40 120.85 173.94 119.02 174.49 117.19 Z" />
<path fill="#26403d" d=" M 154.74 127.19 C 157.19 123.55 160.91 121.14 164.48 118.74 C 162.80 123.04 158.54 125.12 154.74 127.19 Z" />
<path fill="#26403d" d=" M 164.53 123.78 C 166.73 121.86 169.36 120.53 171.83 119.01 C 170.89 121.21 170.93 124.24 168.56 125.53 C 166.30 127.14 163.93 128.58 161.61 130.11 C 162.51 127.97 163.19 125.70 164.53 123.78 Z" />
<path fill="#26403d" d=" M 172.12 125.68 C 175.02 123.84 177.87 121.94 180.84 120.22 C 180.59 121.71 180.24 123.18 179.79 124.62 C 177.02 126.87 173.85 128.57 170.84 130.48 C 171.26 128.87 171.68 127.27 172.12 125.68 Z" />
<path fill="#26403d" d=" M 153.16 131.27 C 155.57 129.18 158.41 127.68 161.06 125.92 C 160.13 128.02 159.52 130.29 158.28 132.24 C 155.47 134.69 152.20 136.53 149.15 138.67 C 150.47 136.20 151.42 133.48 153.16 131.27 Z" />
<path fill="#26403d" d=" M 160.51 133.64 C 163.23 131.27 166.44 129.56 169.41 127.54 C 169.05 129.09 168.70 130.65 168.35 132.21 C 165.01 134.37 161.73 136.63 158.37 138.76 C 159.07 137.05 159.55 135.23 160.51 133.64 Z" />
<path fill="#26403d" d=" M 141.97 138.97 C 144.10 136.84 146.82 135.43 149.27 133.70 C 148.00 136.22 147.10 138.97 145.41 141.25 C 142.66 143.69 139.53 145.64 136.59 147.84 C 138.38 144.88 139.88 141.73 141.97 138.97 Z" />
<path fill="#26403d" d=" M 147.63 142.70 C 150.54 139.98 154.04 138.01 157.28 135.71 C 156.72 137.39 156.17 139.08 155.62 140.77 C 152.10 143.15 148.65 145.62 145.16 148.04 C 145.96 146.25 146.58 144.37 147.63 142.70 Z" />
<path fill="#26403d" d=" M 157.85 141.93 C 160.90 139.33 164.48 137.42 167.75 135.12 C 162.24 164.44 165.48 195.58 178.34 222.61 C 189.75 247.13 208.86 267.68 231.70 282.00 C 227.41 283.88 223.13 285.75 218.81 287.56 C 193.67 274.49 171.48 254.09 160.27 227.68 C 149.63 203.34 148.87 175.50 155.25 149.93 C 156.03 147.26 156.35 144.31 157.85 141.93 Z" />
<path fill="#26403d" d=" M 126.58 155.53 C 129.96 150.65 132.75 145.09 137.68 141.54 C 136.39 143.96 135.10 146.38 133.76 148.76 C 132.24 151.81 129.15 153.50 126.58 155.53 Z" />
<path fill="#26403d" d=" M 135.99 150.95 C 138.69 148.85 141.50 146.90 144.28 144.91 C 143.21 147.17 142.75 149.97 140.54 151.45 C 137.48 153.82 134.32 156.06 131.21 158.38 C 132.58 155.79 133.49 152.71 135.99 150.95 Z" />
<path fill="#26403d" d=" M 143.69 152.38 C 146.60 148.81 151.06 146.82 154.65 143.98 C 147.08 170.30 146.73 199.25 156.87 224.95 C 167.54 252.90 190.28 274.74 216.32 288.65 C 212.20 290.40 208.06 292.13 203.94 293.89 C 179.31 284.34 156.73 267.09 145.04 242.95 C 131.15 214.82 132.97 181.22 143.69 152.38 Z" />
<path fill="#26403d" d=" M 115.86 164.18 C 120.09 158.45 124.55 152.88 129.29 147.55 C 125.14 153.37 122.22 160.33 115.86 164.18 Z" />
<path fill="#26403d" d=" M 127.68 166.70 C 129.39 160.31 136.24 157.91 140.80 153.90 C 132.42 178.51 129.87 205.87 137.93 230.90 C 144.39 251.61 158.52 269.49 176.35 281.67 C 184.07 287.04 192.46 291.36 201.11 295.03 C 196.36 297.05 191.57 298.98 186.79 300.91 C 166.30 294.37 146.90 282.49 134.42 264.64 C 123.97 249.98 118.70 231.97 118.52 214.05 C 118.26 197.84 121.83 181.76 127.68 166.70 Z" />
<path fill="#26403d" d=" M 119.23 167.76 C 121.50 162.43 125.56 158.32 130.44 155.31 C 128.86 161.13 123.74 164.35 119.23 167.76 Z" />
<path fill="#26403d" d=" M 105.88 179.10 C 108.86 173.30 113.19 168.44 118.55 164.74 C 117.25 167.01 116.28 169.52 114.59 171.55 C 111.84 174.24 108.75 176.55 105.88 179.10 Z" />
<path fill="#26403d" d=" M 115.07 176.01 C 117.04 170.97 122.23 168.51 126.08 165.11 C 117.37 186.86 113.58 211.16 118.76 234.25 C 122.90 253.34 133.72 270.88 148.91 283.17 C 159.16 291.71 171.25 297.76 183.79 302.15 C 179.87 303.33 176.20 305.93 172.08 306.13 C 156.60 302.96 141.46 296.84 129.11 286.83 C 116.37 276.68 107.40 262.00 104.10 246.05 C 99.03 222.31 104.92 197.62 115.07 176.01 Z" />
<path fill="#26403d" d=" M 206.72 295.02 C 210.73 293.30 214.76 291.59 218.78 289.88 C 220.72 290.85 222.65 291.81 224.58 292.79 C 220.62 294.07 216.79 295.77 212.75 296.76 C 210.64 296.76 208.70 295.64 206.72 295.02 Z" />
<path fill="#26403d" d=" M 215.79 298.11 C 219.58 296.86 223.25 295.23 227.13 294.27 C 229.11 294.67 230.95 295.54 232.88 296.14 C 229.62 297.68 226.22 299.02 222.72 299.86 C 220.32 299.76 218.08 298.74 215.79 298.11 Z" />
<path fill="#26403d" d=" M 190.00 301.99 C 194.63 299.98 199.30 298.07 203.97 296.16 C 205.69 296.81 207.41 297.47 209.14 298.12 C 204.67 299.56 200.29 301.24 195.79 302.54 C 193.86 303.20 191.90 302.26 190.00 301.99 Z" />
<path fill="#26403d" d=" M 198.23 304.00 C 202.94 302.41 207.67 300.88 212.37 299.23 C 214.56 299.92 216.77 300.60 218.97 301.29 C 214.64 302.66 210.42 304.40 205.98 305.38 C 203.35 305.23 200.80 304.53 198.23 304.00 Z" />
<path fill="#26403d" d=" M 177.02 307.40 C 180.20 305.73 183.56 304.45 186.90 303.14 C 188.09 303.50 189.28 303.86 190.48 304.22 C 186.06 305.48 181.72 307.64 177.02 307.40 Z" />
<path fill="#26403d" d=" M 184.80 308.31 C 187.92 307.29 190.98 306.01 194.22 305.43 C 196.70 305.53 199.07 306.39 201.48 306.89 C 196.12 308.94 190.43 309.55 184.80 308.31 Z" />
<path fill="#26403d" d=" M 170.08 312.67 C 173.32 311.71 176.50 310.51 179.84 309.90 C 182.33 309.99 184.78 310.46 187.24 310.78 C 181.68 312.52 175.90 313.45 170.08 312.67 Z" />
<path fill="#26403d" d=" M 187.04 312.90 C 190.03 312.05 193.09 311.40 196.22 311.23 C 193.34 312.55 190.18 312.99 187.04 312.90 Z" />
<path fill="#26403d" d=" M 148.90 320.40 C 155.49 319.69 161.98 317.92 168.66 318.20 C 157.17 320.29 145.61 322.52 133.90 322.75 C 138.75 321.16 143.89 321.11 148.90 320.40 Z" />
<path fill="#26403d" d=" M 46.38 400.53 C 51.52 398.95 57.58 399.72 61.78 403.22 C 62.77 403.79 63.07 404.63 62.68 405.76 C 61.18 406.06 60.00 404.99 58.81 404.31 C 53.09 400.33 43.67 402.14 40.85 408.84 C 38.73 414.26 42.43 420.76 48.12 421.81 C 52.47 423.20 56.99 421.67 60.59 419.17 C 61.78 417.31 63.89 420.25 62.17 421.03 C 55.08 427.16 41.29 425.57 37.97 416.05 C 35.50 409.60 39.96 402.32 46.38 400.53 Z" />
<path fill="#26403d" d=" M 132.76 400.38 C 133.99 400.37 135.23 400.38 136.47 400.40 C 132.36 404.03 128.05 407.41 123.91 411.00 C 128.49 415.29 132.84 419.83 137.72 423.80 C 136.78 423.85 134.89 423.95 133.95 424.00 C 130.17 420.31 126.27 416.75 122.42 413.14 C 122.49 416.75 122.47 420.36 122.48 423.97 C 121.75 423.97 120.31 423.96 119.59 423.96 C 119.54 416.09 119.59 408.21 119.57 400.34 C 120.30 400.34 121.75 400.33 122.48 400.33 C 122.46 403.27 122.47 406.22 122.47 409.17 C 125.84 406.16 129.40 403.39 132.76 400.38 Z" />
<path fill="#26403d" d=" M 270.89 400.42 C 271.57 400.40 272.93 400.35 273.61 400.32 C 273.61 403.63 273.61 406.95 273.61 410.27 C 278.09 410.25 282.57 410.26 287.06 410.24 C 287.06 406.96 287.06 403.67 287.04 400.39 C 287.72 400.37 289.06 400.34 289.73 400.32 C 289.71 408.18 289.75 416.04 289.74 423.91 C 289.07 423.93 287.74 423.99 287.07 424.01 C 287.06 420.22 287.05 416.43 287.06 412.65 C 282.57 412.65 278.08 412.64 273.60 412.64 C 273.63 416.40 273.62 420.16 273.61 423.92 C 272.89 423.94 271.46 423.97 270.74 423.99 C 270.80 416.13 270.60 408.27 270.89 400.42 Z" />
<path fill="#26403d" d=" M 190.09 424.28 C 194.26 416.04 198.68 407.93 203.02 399.78 C 207.47 407.75 211.52 415.94 215.81 424.01 C 215.05 423.99 213.55 423.95 212.79 423.93 C 211.46 421.40 210.08 418.90 208.75 416.37 C 204.98 416.41 201.20 416.14 197.44 416.49 C 194.98 419.17 194.79 424.74 190.09 424.28 Z" />
<path fill="#fafafa" d=" M 203.02 405.56 C 204.51 408.28 205.96 411.03 207.43 413.77 C 204.49 413.88 201.55 413.97 198.61 413.92 C 200.06 411.12 201.54 408.34 203.02 405.56 Z" />
</svg>
